<svg width="45" height="43" viewBox="0 0 45 43" fill="none" xmlns="http://www.w3.org/2000/svg">
<rect y="0.546875" width="40" height="40" rx="8" fill="#FFC200"/>
<mask id="mask0" mask-type="alpha" maskUnits="userSpaceOnUse" x="-1" y="0" width="42" height="42">
<rect y="0.546875" width="40" height="40" rx="8" fill="white" stroke="white"/>
</mask>
<g mask="url(#mask0)">
<path d="M21.9071 4.55848C20.7082 2.70745 21.2337 0.235276 23.0818 -0.968087L45.9237 -15.841C47.7782 -17.0485 50.2606 -16.5208 51.4636 -14.6635L77.5229 25.5704C78.7218 27.4214 78.1964 29.8936 76.3482 31.097L53.5063 45.9699C51.6519 47.1774 49.1694 46.6497 47.9664 44.7924L21.9071 4.55848Z" fill="#753AD7"/>
<path d="M25.2549 27.4297C25.2549 34.2684 19.7277 39.7987 12.9264 39.7987C6.12501 39.7987 0.5979 34.2684 0.5979 27.4297C0.5979 20.5911 6.12501 15.0607 12.9264 15.0607C19.7277 15.0607 25.2549 20.5911 25.2549 27.4297Z" stroke="#FF0000" stroke-width="6"/>
</g>
</svg>
