<svg width="40" height="40" viewBox="0 0 40 40" fill="none" xmlns="http://www.w3.org/2000/svg">
<rect width="40" height="40" rx="8" fill="#FFE2E2"/>
<path opacity="0.7" d="M13.0215 21.0293H11.5098V24H9.66406V15.4688H13.0215C13.6973 15.4688 14.2754 15.5918 14.7559 15.8379C15.2402 16.084 15.6113 16.4219 15.8691 16.8516C16.1309 17.2773 16.2617 17.7637 16.2617 18.3105C16.2617 19.1387 15.9746 19.7988 15.4004 20.291C14.8262 20.7832 14.0332 21.0293 13.0215 21.0293ZM13.0215 16.957H11.5098V19.5469H13.0215C13.5059 19.5469 13.8555 19.4336 14.0703 19.207C14.2852 18.9766 14.3926 18.6816 14.3926 18.3223C14.3926 17.9668 14.2852 17.6504 14.0703 17.373C13.8555 17.0957 13.5059 16.957 13.0215 16.957ZM17.4336 24V15.4688H20.0879C20.8574 15.4688 21.5352 15.6406 22.1211 15.9844C22.7109 16.3281 23.1719 16.8066 23.5039 17.4199C23.8359 18.0332 24.002 18.7441 24.002 19.5527V19.916C24.002 20.7285 23.8359 21.4414 23.5039 22.0547C23.1758 22.668 22.7168 23.1465 22.127 23.4902C21.5371 23.8301 20.8535 24 20.0762 24H17.4336ZM20.0879 16.957H19.2793V22.5176H20.0762C20.752 22.5176 21.2637 22.2949 21.6113 21.8496C21.9629 21.4043 22.1387 20.7598 22.1387 19.916V19.541C22.1387 18.6934 21.9629 18.0508 21.6113 17.6133C21.2637 17.1758 20.7559 16.957 20.0879 16.957ZM27.0723 24H25.2266V15.4688H30.8223V16.957H27.0723V19.0664H30.418V20.5488H27.0723V24Z" fill="#FF0000"/>
</svg>
