<svg width="48" height="48" viewBox="0 0 48 48" fill="none" xmlns="http://www.w3.org/2000/svg">
<g filter="url(#filter0_d)">
<rect x="4" width="40" height="40" rx="8" fill="#D7F6FF"/>
<path opacity="0.7" d="M21.6562 24H15.123V22.9395L19.2832 16.957H15.1113V15.4688H21.5684V16.5L17.4375 22.5176H21.6562V24ZM24.6797 24H22.8398V15.4688H24.6797V24ZM29.6191 21.0293H28.1074V24H26.2617V15.4688H29.6191C30.2949 15.4688 30.873 15.5918 31.3535 15.8379C31.8379 16.084 32.209 16.4219 32.4668 16.8516C32.7285 17.2773 32.8594 17.7637 32.8594 18.3105C32.8594 19.1387 32.5723 19.7988 31.998 20.291C31.4238 20.7832 30.6309 21.0293 29.6191 21.0293ZM29.6191 16.957H28.1074V19.5469H29.6191C30.1035 19.5469 30.4531 19.4336 30.668 19.207C30.8828 18.9766 30.9902 18.6816 30.9902 18.3223C30.9902 17.9668 30.8828 17.6504 30.668 17.373C30.4531 17.0957 30.1035 16.957 29.6191 16.957Z" fill="#222C2E"/>
</g>
<defs>
<filter id="filter0_d" x="0" y="0" width="48" height="48" filterUnits="userSpaceOnUse" color-interpolation-filters="sRGB">
<feFlood flood-opacity="0" result="BackgroundImageFix"/>
<feColorMatrix in="SourceAlpha" type="matrix" values="0 0 0 0 0 0 0 0 0 0 0 0 0 0 0 0 0 0 127 0"/>
<feOffset dy="4"/>
<feGaussianBlur stdDeviation="2"/>
<feColorMatrix type="matrix" values="0 0 0 0 0 0 0 0 0 0 0 0 0 0 0 0 0 0 0.25 0"/>
<feBlend mode="normal" in2="BackgroundImageFix" result="effect1_dropShadow"/>
<feBlend mode="normal" in="SourceGraphic" in2="effect1_dropShadow" result="shape"/>
</filter>
</defs>
</svg>
