<svg width="27" height="22" viewBox="0 0 27 22" fill="none" xmlns="http://www.w3.org/2000/svg">
<g filter="url(#filter0_d)">
<path fill-rule="evenodd" clip-rule="evenodd" d="M8.90408 0.937315C9.43366 0.410434 10.2902 0.413136 10.8171 0.940017C11.3439 1.4669 11.3439 2.32342 10.8171 2.8503L5.41316 8.2542C5.14837 8.51629 4.80252 8.64869 4.45667 8.64869C4.11082 8.64869 3.76497 8.51629 3.50288 8.2515L0.800922 5.54955C0.274042 5.02267 0.274042 4.16615 0.800922 3.63927C1.3278 3.11239 2.18432 3.11239 2.7112 3.63927L4.45667 5.38743L8.90408 0.937315ZM8.90408 11.7451C9.43366 11.2182 10.2902 11.2209 10.8171 11.7478C11.3439 12.2747 11.3439 13.1312 10.8171 13.6581L5.41316 19.062C5.14837 19.3241 4.80252 19.4565 4.45667 19.4565C4.11082 19.4565 3.76497 19.3241 3.50288 19.062L0.800922 16.3601C0.274042 15.8332 0.274042 14.9767 0.800922 14.4498C1.3278 13.9229 2.18432 13.9229 2.7112 14.4498L4.45667 16.1952L8.90408 11.7451ZM20.6684 3.24478H15.2645C14.5187 3.24478 13.9135 3.85002 13.9135 4.59576C13.9135 5.3415 14.5187 5.94674 15.2645 5.94674H20.6684C21.4141 5.94674 22.0194 5.3415 22.0194 4.59576C22.0194 3.85002 21.4141 3.24478 20.6684 3.24478ZM15.2645 14.0526H20.6684C21.4141 14.0526 22.0194 14.6578 22.0194 15.4036C22.0194 16.1493 21.4141 16.7545 20.6684 16.7545H15.2645C14.5187 16.7545 13.9135 16.1493 13.9135 15.4036C13.9135 14.6578 14.5187 14.0526 15.2645 14.0526Z" fill="#FFC200"/>
</g>
<defs>
<filter id="filter0_d" x="-3.59424" y="0.543503" width="29.6136" height="26.913" filterUnits="userSpaceOnUse" color-interpolation-filters="sRGB">
<feFlood flood-opacity="0" result="BackgroundImageFix"/>
<feColorMatrix in="SourceAlpha" type="matrix" values="0 0 0 0 0 0 0 0 0 0 0 0 0 0 0 0 0 0 127 0"/>
<feOffset dy="4"/>
<feGaussianBlur stdDeviation="2"/>
<feColorMatrix type="matrix" values="0 0 0 0 0 0 0 0 0 0 0 0 0 0 0 0 0 0 0.25 0"/>
<feBlend mode="normal" in2="BackgroundImageFix" result="effect1_dropShadow"/>
<feBlend mode="normal" in="SourceGraphic" in2="effect1_dropShadow" result="shape"/>
</filter>
</defs>
</svg>
