<svg width="18" height="18" viewBox="0 0 18 18" fill="none" xmlns="http://www.w3.org/2000/svg">
<g opacity="0.5">
<path fill-rule="evenodd" clip-rule="evenodd" d="M16.6084 14.7175L13.1325 11.2417C13.114 11.2232 13.0924 11.2103 13.0731 11.1931C13.757 10.1556 14.1562 8.91371 14.1562 7.57816C14.1562 3.94512 11.2111 1 7.57809 1C3.94512 1 1 3.94512 1 7.57809C1 11.211 3.94506 14.1562 7.57803 14.1562C8.91364 14.1562 10.1555 13.757 11.193 13.0731C11.2102 13.0923 11.223 13.114 11.2415 13.1324L14.7175 16.6084C15.2396 17.1305 16.0862 17.1305 16.6084 16.6084C17.1305 16.0863 17.1305 15.2397 16.6084 14.7175ZM7.57809 11.8758C5.20448 11.8758 3.28035 9.95164 3.28035 7.57809C3.28035 5.20448 5.20454 3.28035 7.57809 3.28035C9.95158 3.28035 11.8758 5.20454 11.8758 7.57809C11.8758 9.95164 9.95158 11.8758 7.57809 11.8758Z" fill="white"/>
<path d="M16.6084 14.7175L16.962 14.364L16.962 14.364L16.6084 14.7175ZM13.1325 11.2417L12.779 11.5952L12.779 11.5952L13.1325 11.2417ZM13.0731 11.1931L12.6556 10.9179L12.4176 11.2789L12.7405 11.5665L13.0731 11.1931ZM11.193 13.0731L11.5658 12.7399L11.2782 12.418L10.9178 12.6556L11.193 13.0731ZM14.7175 16.6084L14.3639 16.962L14.3639 16.962L14.7175 16.6084ZM16.6084 16.6084L16.9619 16.962L16.962 16.962L16.6084 16.6084ZM16.962 14.364L13.4861 10.8881L12.779 11.5952L16.2549 15.0711L16.962 14.364ZM13.4861 10.8881C13.4507 10.8528 13.4169 10.8274 13.4052 10.8185C13.4034 10.8172 13.4018 10.8159 13.4005 10.815C13.3992 10.8139 13.3982 10.8132 13.3973 10.8125C13.3964 10.8119 13.3959 10.8114 13.3954 10.8111C13.395 10.8108 13.3949 10.8107 13.3949 10.8107C13.395 10.8108 13.3961 10.8116 13.3978 10.8131C13.3996 10.8145 13.4023 10.8168 13.4056 10.8197L12.7405 11.5665C12.7565 11.5808 12.7709 11.5922 12.7809 11.6C12.7859 11.6039 12.7904 11.6073 12.7937 11.6098C12.7953 11.611 12.7969 11.6122 12.798 11.6131C12.7993 11.6141 12.8002 11.6147 12.801 11.6154C12.8047 11.6181 12.803 11.6169 12.7995 11.6141C12.7957 11.6109 12.7882 11.6045 12.779 11.5952L13.4861 10.8881ZM13.4905 11.4683C14.2265 10.3519 14.6562 9.01486 14.6562 7.57816H13.6562C13.6562 8.81256 13.2876 9.95928 12.6556 10.9179L13.4905 11.4683ZM14.6562 7.57816C14.6562 3.66899 11.4872 0.5 7.57809 0.5V1.5C10.9349 1.5 13.6562 4.22126 13.6562 7.57816H14.6562ZM7.57809 0.5C3.66898 0.5 0.5 3.66898 0.5 7.57809H1.5C1.5 4.22127 4.22127 1.5 7.57809 1.5V0.5ZM0.5 7.57809C0.5 11.4871 3.66891 14.6562 7.57803 14.6562V13.6562C4.22121 13.6562 1.5 10.9349 1.5 7.57809H0.5ZM7.57803 14.6562C9.01479 14.6562 10.3518 14.2265 11.4682 13.4905L10.9178 12.6556C9.95915 13.2876 8.81249 13.6562 7.57803 13.6562V14.6562ZM10.8202 13.4062C10.8142 13.3996 10.8107 13.395 10.8106 13.3949C10.8106 13.3949 10.8109 13.3954 10.8123 13.3971C10.813 13.398 10.8137 13.3989 10.8147 13.4003C10.8156 13.4015 10.8168 13.4032 10.8181 13.4048C10.8269 13.4164 10.8524 13.4505 10.8879 13.486L11.595 12.7789C11.6044 12.7882 11.6109 12.7958 11.6141 12.7997C11.6169 12.8032 11.6182 12.8049 11.6154 12.8012C11.6148 12.8004 11.6141 12.7995 11.6131 12.7982C11.6122 12.797 11.611 12.7954 11.6097 12.7938C11.6072 12.7904 11.6038 12.7859 11.5998 12.7808C11.5919 12.7707 11.5803 12.7561 11.5658 12.7399L10.8202 13.4062ZM10.8879 13.486L14.3639 16.962L15.071 16.2549L11.595 12.7789L10.8879 13.486ZM14.3639 16.962C15.0814 17.6793 16.2445 17.6793 16.9619 16.962L16.2549 16.2548C15.9279 16.5817 15.3979 16.5817 15.071 16.2549L14.3639 16.962ZM16.962 16.962C17.6793 16.2445 17.6793 15.0814 16.962 14.364L16.2549 15.0711C16.5817 15.398 16.5817 15.928 16.2549 16.2549L16.962 16.962ZM7.57809 11.3758C5.48062 11.3758 3.78035 9.6755 3.78035 7.57809H2.78035C2.78035 10.2278 4.92834 12.3758 7.57809 12.3758V11.3758ZM3.78035 7.57809C3.78035 5.48063 5.48068 3.78035 7.57809 3.78035V2.78035C4.92841 2.78035 2.78035 4.92833 2.78035 7.57809H3.78035ZM7.57809 3.78035C9.67543 3.78035 11.3758 5.48068 11.3758 7.57809H12.3758C12.3758 4.92841 10.2277 2.78035 7.57809 2.78035V3.78035ZM11.3758 7.57809C11.3758 9.6755 9.67544 11.3758 7.57809 11.3758V12.3758C10.2277 12.3758 12.3758 10.2278 12.3758 7.57809H11.3758Z" fill="black"/>
</g>
</svg>
