<svg width="18" height="6" viewBox="0 0 18 6" fill="none" xmlns="http://www.w3.org/2000/svg">
<path fill-rule="evenodd" clip-rule="evenodd" d="M4.5 3.15186C4.5 4.3945 3.49264 5.40186 2.25 5.40186C1.00736 5.40186 0 4.3945 0 3.15186C0 1.90921 1.00736 0.901855 2.25 0.901855C3.49264 0.901855 4.5 1.90921 4.5 3.15186ZM11.25 3.15186C11.25 4.3945 10.2426 5.40186 9 5.40186C7.75736 5.40186 6.75 4.3945 6.75 3.15186C6.75 1.90921 7.75736 0.901855 9 0.901855C10.2426 0.901855 11.25 1.90921 11.25 3.15186ZM15.75 5.40186C16.9926 5.40186 18 4.3945 18 3.15186C18 1.90921 16.9926 0.901855 15.75 0.901855C14.5074 0.901855 13.5 1.90921 13.5 3.15186C13.5 4.3945 14.5074 5.40186 15.75 5.40186Z" fill="#9B9B9B"/>
</svg>
