<?xml version="1.0" standalone="no"?>
<!DOCTYPE svg PUBLIC "-//W3C//DTD SVG 1.0//EN" "http://www.w3.org/TR/2001/REC-SVG-20010904/DTD/svg10.dtd">
<svg xmlns="http://www.w3.org/2000/svg" xmlns:xlink="http://www.w3.org/1999/xlink" id="body_2" width="9" height="5">

<defs>
    <clipPath  id="1">

    <path id=""  clip-rule="evenodd" transform="matrix(1 0 0 1 0 0)"  d="M7.5 -0.5L7.5 4L7.5 4L0 4L0 4L0 -0.5L0 -0.5L7.5 -0.5z" />    </clipPath>
</defs>

<g transform="matrix(1.3333 0 0 1.3333 0 0)">
	<g clip-path="url(#1)" >
    <path id=""  transform="matrix(1 0 0 -1 0 4)"  d="M0.17815495 0.5132415L0.17815495 0.5132415L0.17815495 0.5132415L0.5391226 0.1695075L0.5391226 0.1695075L0.5391226 0.1695075C 0.6642151 0.05651325 0.81031466 -8.192502E-16 0.9770851 -7.988267E-16L0.9770851 -7.988267E-16L0.9770851 -7.988267E-16C 1.1472974 -7.779817E-16 1.2916574 0.05651325 1.4104052 0.1695075L1.4104052 0.1695075L3.749985 2.3966851L3.749985 2.3966851L6.0895424 0.169572L6.0895424 0.169572L6.0895424 0.169572C 6.208275 0.05657745 6.3526726 6.420135E-05 6.5228176 6.420135E-05L6.5228176 6.420135E-05L6.5228176 6.420135E-05C 6.68967 6.420135E-05 6.835734 0.05657745 6.9608417 0.169572L6.9608417 0.169572L7.317077 0.513306C 7.4390483 0.62933326 7.5 0.76837504 7.5 0.9303075L7.5 0.9303075L7.5 0.9303075C 7.5 1.0952625 7.4389806 1.23273 7.317094 1.3426875L7.317094 1.3426875L4.183275 4.3258877C 4.0676928 4.441928 3.9233475 4.5 3.75 4.5L3.75 4.5L3.75 4.5C 3.5799074 4.5 3.4338598 4.441942 3.3120074 4.3258877L3.3120074 4.3258877L0.1781702 1.3426875C 0.059414864 1.2296325 0 1.09218 0 0.9303075L0 0.9303075L0 0.9303075C 0 0.7713975 0.059399605 0.6324315 0.17815495 0.5132415z" stroke="#FFFFFF" stroke-width="1" fill="#000000" fill-rule="evenodd" />
	</g>
</g>
</svg>